PathFileType	4	(X/Y/Z)	Walk1.trc
DataRate	CameraRate	NumFrames	NumMarkers	Units	OrigDataRate	OrigDataStartFrame	OrigNumFrames
200.000000	200.000000	8	61	mm	200.000000	228	465
Frame#	Times		LFHD		RFHD		CLAV		STRN		LASI		RASI		RACR1		RUA1		RWRR		RWRU		RCAR		LACR1		LUA1		LFA1		LWRU		LCAR		RTH3		RTH2		RTB1		RTB4		LTH1		LTH3		LTH2		LTH4		LLFC		LMFC		LTB1		LTB3		LTB2		LTB4		LLMAL		LMMAL		LMT1		LMT5		LToe		LBHD		RBHD		RTB3		RFA1		RMFC		RMT5		RLFC		RToe		LElbowM		RTH4		RTB2		RLMAL		RMMAL		RMT1		LWRR		RElbow		LPSI		RPSI		RTH1		C7		LCAL		T10		RBack		RElbowM		RCAL		LElbow
			X1	Y1	Z1	X2	Y2	Z2	X3	Y3	Z3	X4	Y4	Z4	X5	Y5	Z5	X6	Y6	Z6	X7	Y7	Z7	X8	Y8	Z8	X9	Y9	Z9	X10	Y10	Z10	X11	Y11	Z11	X12	Y12	Z12	X13	Y13	Z13	X14	Y14	Z14	X15	Y15	Z15	X16	Y16	Z16	X17	Y17	Z17	X18	Y18	Z18	X19	Y19	Z19	X20	Y20	Z20	X21	Y21	Z21	X22	Y22	Z22	X23	Y23	Z23	X24	Y24	Z24	X25	Y25	Z25	X26	Y26	Z26	X27	Y27	Z27	X28	Y28	Z28	X29	Y29	Z29	X30	Y30	Z30	X31	Y31	Z31	X32	Y32	Z32	X33	Y33	Z33	X34	Y34	Z34	X35	Y35	Z35	X36	Y36	Z36	X37	Y37	Z37	X38	Y38	Z38	X39	Y39	Z39	X40	Y40	Z40	X41	Y41	Z41	X42	Y42	Z42	X43	Y43	Z43	X44	Y44	Z44	X45	Y45	Z45	X46	Y46	Z46	X47	Y47	Z47	X48	Y48	Z48	X49	Y49	Z49	X50	Y50	Z50	X51	Y51	Z51	X52	Y52	Z52	X53	Y53	Z53	X54	Y54	Z54	X55	Y55	Z55	X56	Y56	Z56	X57	Y57	Z57	X58	Y58	Z58	X59	Y59	Z59	X60	Y60	Z60	X61	Y61	Z61

228	1.14	-60.059	1532.9	-132.24	-57.895	1543.5	-33.356	-164.41	1299.9	-61.945	-147.7	1167.5	-53.897	-179.09	909.71	-163.22	-192.32	907.23	86.643	-234.24	1352.2	101.03	-227.18	1183.8	157.68	-118.56	787.73	202.25	-74.051	808.36	154.58	-58.76	743.4	202.92	-241.26	1354	-213.27	-272.96	1181.2	-272.52	-312.05	896.4	-326	-267.2	778.55	-322.24	-304.31	719.18	-358.02	-221.71	562.55	120.82	-174.45	655.88	111.48	-289.95	322.42	66.074	-367.3	281.39	58.698	-208.43	743.44	-235.73	-177.93	577.34	-199.89	-138.12	674.75	-202.86	-194.36	659.8	-219.93	-154.87	441.45	-176.09	-163.6	431.73	-42.94	-120.37	341.02	-109.13	-149.32	172.97	-95.104	-148.46	254.02	-162.98	-137.46	256.45	-102.67	-206.97	62.903	-135.74	-198.21	84.461	-56.991	-73.382	30.771	-62.687	-101.96	23.517	-147.28	-16.304	27.202	-89.034	-216.55	1525.7	-151.78	-208.86	1545.6	-7.4559	-443.18	241.71	48.02	-148.36	903.56	203.65	-252.78	398.54	-24.675	-564.66	117.5	67.007	-214	415.69	98.446	-508.3	56.976	29.283	-317.95	1030.7	-293.42	-227.97	645.68	133.74	-391.57	321.47	97.946	-565.74	229.75	56.22	-537.54	226.38	-21.339	-531.07	96.394	-9.4507	-336.11	780.87	-317.48	-223.6	1016.5	193.89	-358.59	958.89	-94.693	-361.38	948.82	5.0522	-231.52	731.52	151.27	-265.81	1414.1	-67.278	-265.67	36.598	-99.991	-352.84	1203.1	-49.496	-353.93	1293.7	14.526	-259.77	1008.2	123.95	-607.93	265.54	15.464	-325.5	1011.1	-220.62
229	1.145	-52.338	1533.4	-132.23	-50.027	1544.1	-33.353	-157.44	1301.3	-61.818	-140.76	1168.9	-53.576	-171.59	911.11	-163.18	-185.33	908.61	86.526	-227.88	1353.4	101.13	-221.13	1184.9	157.7	-115.28	787.87	203.31	-70.748	807.63	155.21	-55.97	742.71	203.76	-234.02	1355.5	-213.2	-264.23	1182.6	-272.81	-298.14	897.19	-327.06	-250.94	780.33	-323.09	-286.45	720.4	-359.43	-210.38	564.49	120.89	-164.41	658.44	111.88	-274.59	324.21	65.57	-351.77	282.92	58.144	-202.26	744.23	-235.57	-173.94	577.7	-200.03	-132.92	674.65	-202.57	-189.3	660.41	-219.95	-152.62	441.48	-176.47	-162.04	431.53	-43.383	-118.91	340.69	-109.44	-148.69	172.81	-95.316	-147.63	253.81	-163.2	-136.44	256.23	-102.91	-207.04	63.024	-135.76	-197.93	84.543	-57.041	-73.372	30.789	-62.716	-101.95	23.535	-147.3	-16.251	27.22	-89.182	-208.9	1527.2	-151.64	-200.97	1547.1	-7.3258	-427.45	242.96	47.417	-143.89	903.98	204.08	-237.87	400.05	-24.894	-546.37	118.19	66.352	-200.25	417.73	98.511	-488.85	58.714	28.647	-306.97	1031.5	-294.31	-218	647.61	133.95	-376.24	322.95	97.316	-550.01	230.56	55.465	-521.7	227.19	-22.051	-512.37	97.647	-10.075	-319.9	781.22	-318.9	-217.9	1017.6	193.75	-351.35	960.04	-95.152	-354.22	950.3	4.6353	-222.98	733.23	151.33	-258.71	1415.6	-67.185	-265.65	36.781	-99.979	-345.74	1204.3	-49.951	-347.09	1294.8	14.084	-253.85	1009.4	123.71	-593.06	264.89	14.455	-314.64	1011.6	-221.59
230	1.15	-44.651	1533.9	-132.16	-42.201	1544.6	-33.296	-150.49	1302.7	-61.699	-133.82	1170.4	-53.243	-164.1	912.46	-163.12	-178.32	910.01	86.42	-221.55	1354.5	101.21	-215.14	1186	157.74	-112.07	788.06	204.41	-67.513	806.98	155.91	-53.246	742.08	204.67	-226.8	1357.1	-213.13	-255.56	1184	-273.11	-284.21	898.07	-328.05	-234.62	782.28	-323.86	-268.52	721.8	-360.72	-199.08	566.51	121.01	-154.44	661.07	112.35	-259.2	326.04	65.143	-336.13	284.36	57.656	-196.12	744.99	-235.37	-169.98	578.05	-200.11	-127.77	674.52	-202.22	-184.27	660.98	-219.9	-150.43	441.53	-176.8	-160.6	431.37	-43.786	-117.55	340.39	-109.67	-148.09	172.67	-95.462	-146.79	253.63	-163.36	-135.49	256.04	-103.07	-207.05	63.147	-135.78	-197.67	84.63	-57.074	-73.35	30.796	-62.736	-101.94	23.55	-147.3	-16.193	27.239	-89.323	-201.28	1528.6	-151.45	-193.11	1548.5	-7.1519	-411.53	243.98	46.867	-139.53	904.43	204.55	-222.89	401.71	-25.092	-527.7	118.48	65.693	-186.48	419.89	98.605	-468.95	60.209	27.993	-296	1032.3	-295.18	-208.07	649.58	134.2	-360.89	324.32	96.713	-534.08	230.93	54.711	-505.61	227.57	-22.747	-493.26	98.571	-10.701	-303.61	781.72	-320.22	-212.31	1018.7	193.64	-344.11	961.15	-95.574	-347.05	951.77	4.2405	-214.51	734.97	151.42	-251.63	1417	-67.091	-265.62	36.984	-99.949	-338.65	1205.5	-50.424	-340.26	1295.9	13.625	-248.05	1010.7	123.51	-577.98	263.72	13.442	-303.77	1012.2	-222.53
231	1.155	-36.995	1534.4	-132.05	-34.42	1545.1	-33.185	-143.55	1304.1	-61.587	-126.89	1171.8	-52.905	-156.64	913.74	-163.05	-171.28	911.42	86.323	-215.25	1355.6	101.28	-209.22	1187	157.77	-108.93	788.28	205.53	-64.333	806.39	156.69	-50.582	741.52	205.65	-219.62	1358.6	-213.07	-246.93	1185.4	-273.41	-270.26	899.04	-328.98	-218.26	784.38	-324.54	-250.53	723.36	-361.9	-187.79	568.59	121.15	-144.52	663.75	112.88	-243.79	327.88	64.802	-320.39	285.68	57.238	-189.99	745.71	-235.12	-166.07	578.39	-200.16	-122.67	674.38	-201.82	-179.27	661.52	-219.8	-148.3	441.59	-177.09	-159.26	431.23	-44.149	-116.27	340.13	-109.8	-147.52	172.56	-95.54	-145.95	253.47	-163.44	-134.61	255.87	-103.15	-207	63.272	-135.78	-197.45	84.724	-57.09	-73.314	30.79	-62.746	-101.91	23.563	-147.28	-16.129	27.258	-89.455	-193.68	1530.1	-151.24	-185.3	1549.9	-6.9375	-395.44	244.77	46.372	-135.25	904.91	205.06	-207.85	403.51	-25.26	-508.71	118.37	65.043	-172.69	422.16	98.73	-448.64	61.453	27.348	-285.04	1033.1	-296.01	-198.18	651.57	134.5	-345.53	325.55	96.145	-517.95	230.87	53.955	-489.27	227.52	-23.427	-473.78	99.167	-11.31	-287.24	782.35	-321.44	-206.83	1019.8	193.56	-336.87	962.24	-95.957	-339.87	953.21	3.8698	-206.1	736.71	151.56	-244.56	1418.4	-67	-265.58	37.207	-99.899	-331.56	1206.6	-50.912	-333.44	1296.9	13.149	-242.36	1012	123.35	-562.7	262.04	12.424	-292.89	1012.8	-223.43
232	1.16	-29.372	1535	-131.89	-26.685	1545.6	-33.021	-136.62	1305.4	-61.486	-119.94	1173.2	-52.567	-149.21	914.95	-162.99	-164.22	912.82	86.231	-208.97	1356.7	101.33	-203.35	1188.1	157.81	-105.86	788.54	206.69	-61.195	805.87	157.54	-47.974	741.02	206.71	-212.44	1360.2	-213.02	-238.34	1186.8	-273.71	-256.29	900.09	-329.84	-201.87	786.63	-325.14	-232.49	725.09	-362.96	-176.51	570.71	121.33	-134.65	666.48	113.45	-228.37	329.74	64.553	-304.56	286.88	56.892	-183.88	746.39	-234.84	-162.2	578.71	-200.16	-117.61	674.22	-201.36	-174.3	662.01	-219.64	-146.22	441.67	-177.32	-158.02	431.13	-44.474	-115.07	339.9	-109.83	-146.98	172.47	-95.552	-145.09	253.34	-163.47	-133.79	255.72	-103.15	-206.89	63.397	-135.77	-197.26	84.824	-57.087	-73.266	30.773	-62.746	-101.88	23.574	-147.25	-16.06	27.276	-89.577	-186.11	1531.6	-150.99	-177.53	1551.2	-6.6859	-379.18	245.31	45.931	-131.07	905.4	205.61	-192.76	405.43	-25.392	-489.44	117.89	64.416	-158.89	424.52	98.89	-427.99	62.44	26.738	-274.1	1033.9	-296.8	-188.31	653.55	134.83	-330.17	326.64	95.618	-501.64	230.37	53.196	-472.7	227.04	-24.092	-453.96	99.439	-11.883	-270.81	783.12	-322.56	-201.44	1020.8	193.51	-329.63	963.3	-96.3	-332.68	954.62	3.525	-197.74	738.45	151.72	-237.5	1419.7	-66.916	-265.53	37.448	-99.828	-324.48	1207.7	-51.416	-326.63	1298	12.656	-236.76	1013.2	123.22	-547.19	259.87	11.403	-282.01	1013.4	-224.29
233	1.165	-21.779	1535.5	-131.69	-18.996	1546	-32.808	-129.69	1306.7	-61.394	-112.99	1174.6	-52.237	-141.81	916.08	-162.93	-157.13	914.2	86.142	-202.7	1357.7	101.36	-197.52	1189	157.85	-102.85	788.81	207.87	-58.087	805.39	158.48	-45.417	740.56	207.85	-205.28	1361.7	-212.97	-229.8	1188.2	-274.02	-242.32	901.22	-330.63	-185.45	789.04	-325.67	-214.42	726.99	-363.9	-165.25	572.86	121.54	-124.84	669.23	114.06	-212.97	331.6	64.402	-288.67	287.96	56.62	-177.79	747.03	-234.53	-158.36	579.03	-200.12	-112.59	674.03	-200.85	-169.36	662.46	-219.43	-144.19	441.76	-177.52	-156.86	431.07	-44.761	-113.93	339.7	-109.79	-146.46	172.39	-95.504	-144.23	253.22	-163.44	-133.03	255.59	-103.08	-206.74	63.524	-135.76	-197.09	84.931	-57.066	-73.204	30.746	-62.738	-101.85	23.584	-147.2	-15.986	27.292	-89.687	-178.56	1533	-150.72	-169.82	1552.5	-6.4011	-362.78	245.62	45.545	-126.97	905.89	206.19	-177.65	407.47	-25.482	-469.91	117.05	63.824	-145.09	426.96	99.084	-407.04	63.173	26.186	-263.18	1034.8	-297.57	-178.47	655.53	135.19	-314.84	327.58	95.138	-485.14	229.43	52.435	-455.91	226.15	-24.742	-433.86	99.394	-12.404	-254.32	784.02	-323.58	-196.16	1021.9	193.49	-322.39	964.31	-96.601	-325.48	955.98	3.2076	-189.41	740.17	151.92	-230.44	1421	-66.841	-265.48	37.707	-99.735	-317.4	1208.7	-51.932	-319.82	1298.9	12.145	-231.25	1014.4	123.11	-531.47	257.24	10.385	-271.14	1014.1	-225.1
234	1.17	-14.216	1536.1	-131.44	-11.354	1546.4	-32.546	-122.77	1307.9	-61.314	-106.03	1176	-51.92	-134.43	917.13	-162.87	-150.01	915.54	86.054	-196.45	1358.6	101.36	-191.74	1190	157.87	-99.894	789.09	209.08	-55	804.96	159.49	-42.909	740.14	209.07	-198.12	1363.1	-212.94	-221.28	1189.6	-274.34	-228.35	902.42	-331.37	-169.03	791.58	-326.11	-196.32	729.03	-364.72	-154.01	575.03	121.78	-115.08	672	114.71	-197.58	333.44	64.353	-272.72	288.92	56.422	-171.72	747.61	-234.18	-154.55	579.33	-200.04	-107.62	673.81	-200.3	-164.44	662.87	-219.17	-142.19	441.86	-177.67	-155.79	431.03	-45.014	-112.85	339.52	-109.67	-145.96	172.34	-95.402	-143.35	253.12	-163.35	-132.3	255.48	-102.95	-206.54	63.655	-135.73	-196.94	85.047	-57.025	-73.13	30.711	-62.72	-101.82	23.593	-147.13	-15.905	27.307	-89.785	-171.03	1534.3	-150.43	-162.15	1553.6	-6.0863	-346.24	245.69	45.213	-122.95	906.37	206.81	-162.56	409.62	-25.528	-450.15	115.87	63.278	-131.3	429.48	99.314	-385.83	63.653	25.711	-252.3	1035.6	-298.3	-168.66	657.47	135.57	-299.52	328.35	94.71	-468.47	228.07	51.673	-438.9	224.86	-25.375	-413.49	99.042	-12.857	-237.78	785.04	-324.5	-190.97	1022.9	193.49	-315.16	965.27	-96.861	-318.27	957.3	2.9192	-181.11	741.85	152.15	-223.39	1422.3	-66.779	-265.41	37.982	-99.617	-310.33	1209.7	-52.459	-313.02	1299.8	11.616	-225.82	1015.6	123.02	-515.53	254.15	9.3721	-260.27	1014.7	-225.88
235	1.175	-6.6813	1536.6	-131.15	-3.7583	1546.8	-32.238	-115.84	1309.1	-61.245	-99.052	1177.3	-51.623	-127.09	918.09	-162.82	-142.86	916.84	85.965	-190.19	1359.5	101.34	-185.99	1190.8	157.89	-96.993	789.36	210.3	-51.924	804.56	160.59	-40.447	739.74	210.38	-190.95	1364.5	-212.91	-212.8	1191	-274.65	-214.39	903.69	-332.04	-152.61	794.26	-326.48	-178.21	731.22	-365.42	-142.79	577.2	122.04	-105.36	674.78	115.39	-182.23	335.26	64.405	-256.71	289.74	56.299	-165.67	748.15	-233.82	-150.78	579.61	-199.93	-102.69	673.57	-199.7	-159.54	663.23	-218.86	-140.24	441.97	-177.78	-154.79	431.04	-45.233	-111.81	339.37	-109.49	-145.47	172.31	-95.254	-142.48	253.05	-163.22	-131.62	255.39	-102.76	-206.3	63.792	-135.68	-196.8	85.172	-56.962	-73.045	30.668	-62.694	-101.78	23.602	-147.04	-15.819	27.32	-89.871	-163.52	1535.7	-150.12	-154.52	1554.6	-5.7452	-329.57	245.52	44.935	-119.01	906.84	207.46	-147.5	411.86	-25.53	-430.18	114.38	62.787	-117.55	432.05	99.577	-364.4	63.891	25.327	-241.45	1036.5	-299	-158.86	659.38	135.97	-284.24	328.95	94.338	-451.63	226.29	50.914	-421.67	223.2	-25.989	-392.88	98.395	-13.233	-221.2	786.2	-325.33	-185.87	1023.8	193.52	-307.93	966.18	-97.08	-311.05	958.54	2.6609	-172.82	743.5	152.41	-216.34	1423.4	-66.733	-265.34	38.274	-99.476	-303.25	1210.6	-52.995	-306.21	1300.6	11.069	-220.47	1016.7	122.94	-499.36	250.63	8.3714	-249.42	1015.4	-226.61
